<svg width="197" height="197" viewBox="0 0 197 197" fill="none" xmlns="http://www.w3.org/2000/svg">
<path d="M104.527 140.089C107.398 139.898 109.677 137.508 109.677 134.589V126.545V125.045C109.677 120.864 111.466 116.806 114.586 113.912C120.087 108.808 122.857 101.576 122.184 94.068C121.144 82.456 111.58 73.093 99.936 72.289C98.79 72.21 97.674 72.21 96.527 72.289C84.884 73.093 75.319 82.456 74.279 94.068C73.607 101.576 76.376 108.81 81.877 113.912C84.996 116.806 86.785 120.863 86.785 125.045V126.545V134.589C86.785 137.507 89.064 139.898 91.935 140.089C92.674 142.602 95.162 145 98.231 145C101.3 145 103.789 142.602 104.527 140.089ZM89.786 131.066H106.677V132.587H89.786V131.066ZM83.917 111.713C79.102 107.246 76.678 100.912 77.267 94.336C78.177 84.177 86.545 75.985 96.733 75.282C97.74 75.213 98.723 75.213 99.729 75.282C109.917 75.985 118.285 84.177 119.195 94.336C119.784 100.912 117.361 107.246 112.546 111.713C109.19 114.826 107.122 119.072 106.741 123.545H102.86V104.399H104.83C107.57 104.399 109.799 102.17 109.799 99.43C109.799 96.69 107.57 94.46 104.83 94.46C102.09 94.46 99.86 96.689 99.86 99.43V101.399H96.604V99.43C96.604 96.69 94.375 94.46 91.635 94.46C88.895 94.46 86.665 96.689 86.665 99.43C86.665 102.171 88.894 104.399 91.635 104.399H93.604V123.545H89.723C89.341 119.073 87.273 114.826 83.917 111.713ZM93.603 101.399H91.634C90.548 101.399 89.664 100.516 89.664 99.43C89.664 98.344 90.548 97.46 91.634 97.46C92.72 97.46 93.603 98.344 93.603 99.43V101.399ZM96.603 104.399H99.859V123.545H96.603V104.399ZM102.859 101.399V99.43C102.859 98.344 103.743 97.46 104.829 97.46C105.915 97.46 106.798 98.344 106.798 99.43C106.798 100.516 105.915 101.399 104.829 101.399H102.859ZM106.677 126.545V128.066H89.786V126.545H106.677ZM89.994 135.587H106.468C106.08 136.48 105.192 137.108 104.158 137.108H92.305C91.27 137.108 90.382 136.481 89.994 135.587ZM98.231 142C96.944 142 95.818 141.103 95.203 140.108H101.26C100.644 141.103 99.518 142 98.231 142Z" fill="black"/>
<path d="M96.641 56.59V63.558C96.641 64.433 97.357 65.148 98.231 65.148C99.106 65.148 99.821 64.432 99.821 63.558V56.59C99.821 55.715 99.105 55 98.231 55C97.357 55 96.641 55.716 96.641 56.59Z" fill="black"/>
<path d="M122.623 63.076C121.915 62.562 120.916 62.72 120.402 63.428L116.306 69.065C115.792 69.773 115.95 70.772 116.658 71.286C117.366 71.8 118.365 71.642 118.879 70.934L122.975 65.297C123.488 64.589 123.33 63.59 122.623 63.076Z" fill="black"/>
<path d="M137.609 83.946C137.339 83.114 136.437 82.655 135.605 82.925L128.978 85.078C128.146 85.348 127.687 86.25 127.957 87.082C128.227 87.914 129.129 88.373 129.961 88.103L136.588 85.95C137.42 85.679 137.879 84.777 137.609 83.946Z" fill="black"/>
<path d="M135.462 110.659C136.294 110.929 137.195 110.47 137.466 109.638C137.736 108.806 137.277 107.905 136.445 107.634L129.818 105.481C128.986 105.211 128.085 105.67 127.814 106.502C127.544 107.334 128.003 108.235 128.835 108.506L135.462 110.659Z" fill="black"/>
<path d="M120.027 129.989C120.541 130.696 121.541 130.855 122.248 130.341C122.956 129.827 123.114 128.827 122.6 128.12L118.504 122.483C117.99 121.775 116.99 121.617 116.283 122.131C115.576 122.645 115.417 123.645 115.931 124.352L120.027 129.989Z" fill="black"/>
<path d="M73.377 130.069C74.085 130.583 75.084 130.425 75.598 129.717L79.694 124.08C80.208 123.372 80.05 122.373 79.342 121.859C78.634 121.345 77.635 121.503 77.121 122.211L73.025 127.848C72.512 128.555 72.67 129.554 73.377 130.069Z" fill="black"/>
<path d="M60.395 110.219L67.022 108.066C67.854 107.796 68.313 106.894 68.043 106.062C67.773 105.23 66.871 104.771 66.039 105.041L59.412 107.194C58.58 107.464 58.121 108.366 58.391 109.198C58.661 110.03 59.563 110.49 60.395 110.219Z" fill="black"/>
<path d="M59.555 85.509L66.182 87.662C67.014 87.932 67.915 87.473 68.186 86.641C68.456 85.809 67.997 84.908 67.165 84.637L60.538 82.484C59.706 82.214 58.805 82.673 58.534 83.505C58.264 84.337 58.723 85.239 59.555 85.509Z" fill="black"/>
<path d="M77.495 70.662C78.009 71.37 79.009 71.528 79.716 71.014C80.424 70.5 80.582 69.5 80.068 68.793L75.972 63.156C75.458 62.448 74.458 62.29 73.751 62.804C73.043 63.318 72.885 64.318 73.399 65.025L77.495 70.662Z" fill="black"/>
<path d="M97.8 43.4C67.64 43.4 43.2 67.84 43.2 98C43.2 128.16 67.64 152.6 97.8 152.6C127.96 152.6 152.4 128.16 152.4 98C152.4 67.84 127.96 43.4 97.8 43.4ZM97.8 142.2C73.36 142.2 53.6 122.44 53.6 98C53.6 73.56 73.36 53.8 97.8 53.8C122.24 53.8 142 73.56 142 98C142 122.44 122.24 142.2 97.8 142.2Z" fill="black"/>
<path d="M190.1 86.04C194.78 82.92 197.12 76.68 195.56 71.22C193.22 63.16 190.1 55.1 185.94 47.82C183.08 42.88 177.1 40.02 171.64 41.32C166.96 42.36 162.02 40.8 158.64 37.42C155.26 34.04 153.7 29.1 154.74 24.42C155.78 18.7 153.18 12.98 148.24 10.12C140.96 5.95997 132.9 2.57997 124.84 0.499972C119.12 -1.06003 113.14 1.27997 110.02 5.95997C107.42 10.12 103 12.46 98.06 12.46C93.12 12.46 88.7 10.12 86.1 5.95997C82.98 1.27997 76.74 -1.06003 71.28 0.499972C63.22 2.83997 55.16 5.95997 47.88 10.12C42.94 12.98 40.08 18.96 41.38 24.42C42.42 29.1 40.86 34.04 37.48 37.42C34.1 40.8 29.16 42.36 24.48 41.32C18.76 40.02 13.04 42.88 10.18 47.82C6.02 55.1 2.64 63.16 0.56 71.22C-1 76.94 1.34 82.92 6.02 86.04C10.18 88.64 12.52 93.06 12.52 98C12.52 102.94 10.18 107.36 6.02 109.96C1.34 113.08 -1 119.32 0.56 124.78C2.9 132.84 6.02 140.9 10.18 148.18C13.04 153.12 19.02 155.98 24.48 154.68C29.16 153.64 34.1 155.2 37.48 158.58C40.86 161.96 42.42 166.9 41.38 171.58C40.08 177.3 42.94 183.02 47.88 185.88C55.16 190.04 63.22 193.42 71.28 195.5C72.58 195.76 73.62 196.02 74.92 196.02C79.34 196.02 83.76 193.68 86.1 190.04C88.7 185.88 93.12 183.54 98.06 183.54C103 183.54 107.42 185.88 110.02 190.04C113.14 194.72 119.38 197.06 124.84 195.5C132.9 193.16 140.96 190.04 148.24 185.88C153.44 183.02 156.04 177.04 154.74 171.58C153.7 166.9 155.26 161.96 158.64 158.58C162.02 155.2 166.96 153.64 171.64 154.68C177.36 155.98 183.08 153.12 185.94 148.18C190.1 140.9 193.48 132.84 195.56 124.78C197.12 119.06 194.78 113.08 190.1 109.96C185.94 107.36 183.6 102.94 183.6 98C183.6 93.06 185.94 88.64 190.1 86.04ZM184.38 77.46C177.36 81.88 173.2 89.68 173.2 98C173.2 106.32 177.36 114.12 184.38 118.54C185.42 119.32 185.94 120.62 185.68 121.92C183.6 129.2 180.74 136.22 177.1 142.98C176.32 144.02 175.02 144.8 173.98 144.54C165.92 142.72 157.34 145.32 151.36 151.3C145.38 157.28 143.04 165.6 144.6 173.92C144.86 175.22 144.08 176.52 143.04 177.3C136.54 180.94 129.52 184.06 121.98 185.88C120.68 186.14 119.12 185.62 118.6 184.58C113.92 177.56 106.12 173.4 97.8 173.4C89.48 173.4 81.68 177.56 77.26 184.58C76.48 185.62 75.18 186.14 73.88 185.88C66.6 183.8 59.58 180.94 52.82 177.3C51.78 176.52 51 175.22 51.26 173.92C53.08 165.86 50.48 157.28 44.5 151.3C39.82 146.62 33.58 144.02 27.08 144.02C25.52 144.02 23.7 144.28 21.88 144.54C20.58 144.8 19.28 144.02 18.76 142.98C15.12 136.48 12 129.46 10.18 121.92C9.92 120.62 10.44 119.06 11.48 118.54C18.5 113.86 22.66 106.32 22.66 98C22.66 89.68 18.5 81.88 11.48 77.46C10.44 76.68 9.92 75.38 10.18 74.08C12.26 66.8 15.12 59.78 18.76 53.02C19.54 51.98 20.84 51.2 21.88 51.46C30.2 53.28 38.52 50.68 44.5 44.7C50.48 38.72 52.82 30.4 51.26 22.08C51 20.78 51.78 19.48 52.82 18.96C59.32 15.32 66.34 12.2 73.88 10.38C75.18 10.12 76.48 10.64 77.26 11.68C81.94 18.7 89.48 22.86 97.8 22.86C106.12 22.86 113.92 18.7 118.34 11.68C119.12 10.64 120.42 10.12 121.72 10.38C129 12.46 136.02 15.32 142.78 18.96C143.82 19.74 144.6 21.04 144.34 22.08C142.52 30.14 145.12 38.72 151.1 44.7C157.08 50.68 165.4 53.02 173.72 51.46C175.02 51.2 176.32 51.98 176.84 53.02C180.48 59.52 183.6 66.54 185.42 74.08C185.94 75.12 185.42 76.68 184.38 77.46Z" fill="black"/>
</svg>
