<svg width="197" height="197" viewBox="0 0 197 197" fill="none" xmlns="http://www.w3.org/2000/svg">
<path d="M97.8 43.4C67.64 43.4 43.2 67.84 43.2 98C43.2 128.16 67.64 152.6 97.8 152.6C127.96 152.6 152.4 128.16 152.4 98C152.4 67.84 127.96 43.4 97.8 43.4ZM97.8 142.2C73.36 142.2 53.6 122.44 53.6 98C53.6 73.56 73.36 53.8 97.8 53.8C122.24 53.8 142 73.56 142 98C142 122.44 122.24 142.2 97.8 142.2Z" fill="black"/>
<path d="M190.1 86.04C194.78 82.92 197.12 76.68 195.56 71.22C193.22 63.16 190.1 55.1 185.94 47.82C183.08 42.88 177.1 40.02 171.64 41.32C166.96 42.36 162.02 40.8 158.64 37.42C155.26 34.04 153.7 29.1 154.74 24.42C155.78 18.7 153.18 12.98 148.24 10.12C140.96 5.95997 132.9 2.57997 124.84 0.499972C119.12 -1.06003 113.14 1.27997 110.02 5.95997C107.42 10.12 103 12.46 98.06 12.46C93.12 12.46 88.7 10.12 86.1 5.95997C82.98 1.27997 76.74 -1.06003 71.28 0.499972C63.22 2.83997 55.16 5.95997 47.88 10.12C42.94 12.98 40.08 18.96 41.38 24.42C42.42 29.1 40.86 34.04 37.48 37.42C34.1 40.8 29.16 42.36 24.48 41.32C18.76 40.02 13.04 42.88 10.18 47.82C6.02 55.1 2.64 63.16 0.56 71.22C-1 76.94 1.34 82.92 6.02 86.04C10.18 88.64 12.52 93.06 12.52 98C12.52 102.94 10.18 107.36 6.02 109.96C1.34 113.08 -1 119.32 0.56 124.78C2.9 132.84 6.02 140.9 10.18 148.18C13.04 153.12 19.02 155.98 24.48 154.68C29.16 153.64 34.1 155.2 37.48 158.58C40.86 161.96 42.42 166.9 41.38 171.58C40.08 177.3 42.94 183.02 47.88 185.88C55.16 190.04 63.22 193.42 71.28 195.5C72.58 195.76 73.62 196.02 74.92 196.02C79.34 196.02 83.76 193.68 86.1 190.04C88.7 185.88 93.12 183.54 98.06 183.54C103 183.54 107.42 185.88 110.02 190.04C113.14 194.72 119.38 197.06 124.84 195.5C132.9 193.16 140.96 190.04 148.24 185.88C153.44 183.02 156.04 177.04 154.74 171.58C153.7 166.9 155.26 161.96 158.64 158.58C162.02 155.2 166.96 153.64 171.64 154.68C177.36 155.98 183.08 153.12 185.94 148.18C190.1 140.9 193.48 132.84 195.56 124.78C197.12 119.06 194.78 113.08 190.1 109.96C185.94 107.36 183.6 102.94 183.6 98C183.6 93.06 185.94 88.64 190.1 86.04ZM184.38 77.46C177.36 81.88 173.2 89.68 173.2 98C173.2 106.32 177.36 114.12 184.38 118.54C185.42 119.32 185.94 120.62 185.68 121.92C183.6 129.2 180.74 136.22 177.1 142.98C176.32 144.02 175.02 144.8 173.98 144.54C165.92 142.72 157.34 145.32 151.36 151.3C145.38 157.28 143.04 165.6 144.6 173.92C144.86 175.22 144.08 176.52 143.04 177.3C136.54 180.94 129.52 184.06 121.98 185.88C120.68 186.14 119.12 185.62 118.6 184.58C113.92 177.56 106.12 173.4 97.8 173.4C89.48 173.4 81.68 177.56 77.26 184.58C76.48 185.62 75.18 186.14 73.88 185.88C66.6 183.8 59.58 180.94 52.82 177.3C51.78 176.52 51 175.22 51.26 173.92C53.08 165.86 50.48 157.28 44.5 151.3C39.82 146.62 33.58 144.02 27.08 144.02C25.52 144.02 23.7 144.28 21.88 144.54C20.58 144.8 19.28 144.02 18.76 142.98C15.12 136.48 12 129.46 10.18 121.92C9.92 120.62 10.44 119.06 11.48 118.54C18.5 113.86 22.66 106.32 22.66 98C22.66 89.68 18.5 81.88 11.48 77.46C10.44 76.68 9.92 75.38 10.18 74.08C12.26 66.8 15.12 59.78 18.76 53.02C19.54 51.98 20.84 51.2 21.88 51.46C30.2 53.28 38.52 50.68 44.5 44.7C50.48 38.72 52.82 30.4 51.26 22.08C51 20.78 51.78 19.48 52.82 18.96C59.32 15.32 66.34 12.2 73.88 10.38C75.18 10.12 76.48 10.64 77.26 11.68C81.94 18.7 89.48 22.86 97.8 22.86C106.12 22.86 113.92 18.7 118.34 11.68C119.12 10.64 120.42 10.12 121.72 10.38C129 12.46 136.02 15.32 142.78 18.96C143.82 19.74 144.6 21.04 144.34 22.08C142.52 30.14 145.12 38.72 151.1 44.7C157.08 50.68 165.4 53.02 173.72 51.46C175.02 51.2 176.32 51.98 176.84 53.02C180.48 59.52 183.6 66.54 185.42 74.08C185.94 75.12 185.42 76.68 184.38 77.46Z" fill="black"/>
</svg>
