<svg width="80" height="56" viewBox="0 0 80 56" fill="none" xmlns="http://www.w3.org/2000/svg">
<path d="M6 0C5.07012 0 4.19031 0.21931 3.40625 0.59375L37.1875 34.75C38.7578 36.3398 41.1768 36.3399 42.75 34.75L76.5938 0.59375C75.8097 0.21931 74.9299 0 74 0H6ZM79.4062 3.40625L54.0312 29.0625L79.4062 52.625C79.7883 51.8346 80 50.9399 80 50V6C80 5.07012 79.7807 4.19031 79.4062 3.40625ZM0.5625 3.43744C0.19914 4.21209 0 5.08484 0 6V50C0 50.9399 0.2117 51.8346 0.59375 52.625L25.9375 29.0938L0.5625 3.43744ZM51.1875 31.9062L45.5938 37.5625C42.5046 40.6842 37.4316 40.6885 34.3438 37.5625L28.7812 31.9375L3.46875 55.4374C4.23685 55.7934 5.09484 56 6 56H74C74.9052 56 75.7631 55.7934 76.5312 55.4375L51.1875 31.9062Z" fill="black"/>
</svg>
